<svg width="223" height="163" viewBox="0 0 223 163" fill="none" xmlns="http://www.w3.org/2000/svg">
<g opacity="0.5" clip-path="url(#clip0_11181_19568)">
<path d="M49.5945 45.1882L8.03174 72.9297L48.9708 133.995L90.5336 106.253L49.5945 45.1882Z" fill="#F5F5F5"/>
<path d="M69.0558 103.37L68.5853 106.283L47.9226 103.311L48.3931 100.398L69.0558 103.37Z" fill="#E0E0E0"/>
<path d="M58.6505 92.9766L61.614 93.4016L58.3282 113.701L55.3611 113.272L58.6505 92.9766Z" fill="#E0E0E0"/>
<path d="M39.6362 67.1802C39.6658 67.2209 35.5022 70.0558 30.3347 73.5006C25.1671 76.9454 20.9553 79.7101 20.9257 79.6658C20.8961 79.6214 25.0597 76.7902 30.2272 73.3417C35.3948 69.8932 39.5881 67.1359 39.6362 67.1802Z" fill="#E0E0E0"/>
<path d="M54.9054 63.3519C54.935 63.3962 48.0079 68.0682 39.4361 73.7898C30.8643 79.5114 23.878 84.1131 23.8558 84.0725C23.8335 84.0318 30.7458 79.3525 39.3287 73.6309C47.9116 67.9092 54.8757 63.3075 54.9054 63.3519Z" fill="#E0E0E0"/>
<path d="M57.9688 67.9144C57.9985 67.9587 51.0714 72.6344 42.4996 78.356C33.9278 84.0776 26.9415 88.6793 26.9192 88.635C26.897 88.5906 33.8167 83.9187 42.3922 78.1934C50.9677 72.468 57.9392 67.87 57.9688 67.9144Z" fill="#E0E0E0"/>
<path d="M61.0323 72.4925C61.0619 72.5369 54.1348 77.2125 45.563 82.9304C36.9912 88.6484 30.0049 93.2575 30.0049 93.2131C30.0049 93.1687 36.8986 88.4931 45.4741 82.7715C54.0496 77.0499 61.0026 72.4482 61.0323 72.4925Z" fill="#E0E0E0"/>
<path d="M64.0848 77.0628C64.1144 77.1072 57.1873 81.7791 48.6155 87.5007C40.0437 93.2224 33.0574 97.8241 33.0389 97.7797C33.0203 97.7354 39.9437 93.0634 48.5266 87.3418C57.1095 81.6202 64.0848 77.0185 64.0848 77.0628Z" fill="#E0E0E0"/>
<path d="M188.575 86.1078L153.669 109.406L188.051 160.69L222.957 137.391L188.575 86.1078Z" fill="#F5F5F5"/>
<path d="M204.923 134.979L204.527 137.426L187.172 134.931L187.572 132.484L204.923 134.979Z" fill="#E0E0E0"/>
<path d="M196.184 126.25L198.674 126.609L195.914 143.655L193.421 143.297L196.184 126.25Z" fill="#E0E0E0"/>
<path d="M180.2 104.603C180.23 104.647 176.737 107.031 172.395 109.925C168.054 112.819 164.512 115.133 164.483 115.1C164.453 115.067 167.95 112.675 172.288 109.777C176.626 106.88 180.171 104.54 180.2 104.603Z" fill="#E0E0E0"/>
<path d="M193.036 101.368C193.065 101.412 187.253 105.345 180.071 110.146C172.888 114.947 167.009 118.813 166.98 118.769C166.95 118.725 172.762 114.792 179.945 109.987C187.127 105.182 192.995 101.323 193.036 101.368Z" fill="#E0E0E0"/>
<path d="M195.61 105.203C195.64 105.248 189.828 109.18 182.645 113.985C175.462 118.79 169.584 122.649 169.554 122.605C169.524 122.561 175.318 118.646 182.519 113.841C189.72 109.036 195.588 105.163 195.61 105.203Z" fill="#E0E0E0"/>
<path d="M198.181 109.039C198.211 109.084 192.395 113.016 185.216 117.821C178.037 122.626 172.155 126.485 172.125 126.441C172.095 126.396 177.907 122.467 185.09 117.659C192.273 112.85 198.155 109.002 198.181 109.039Z" fill="#E0E0E0"/>
<path d="M200.774 112.883C200.804 112.928 194.992 116.857 187.809 121.662C180.626 126.467 174.748 130.325 174.718 130.285C174.688 130.244 180.5 126.308 187.683 121.503C194.866 116.698 200.726 112.839 200.774 112.883Z" fill="#E0E0E0"/>
<path d="M133.352 47.4351L95.2654 27.1094L65.2701 83.0675L103.357 103.393L133.352 47.4351Z" fill="#F5F5F5"/>
<path d="M96.8381 85.8897L94.4229 86.7139L88.2886 69.7967L90.7075 68.9688L96.8381 85.8897Z" fill="#E0E0E0"/>
<path d="M100.542 73.75L101.424 76.1784L84.5843 81.9333L83.7026 79.5049L100.542 73.75Z" fill="#E0E0E0"/>
<path d="M112.508 48.7897C112.478 48.8451 108.618 46.8418 103.88 44.3174C99.1424 41.7929 95.3306 39.6972 95.3603 39.6417C95.3899 39.5863 99.2535 41.5896 103.991 44.1141C108.729 46.6386 112.537 48.7306 112.508 48.7897Z" fill="#E0E0E0"/>
<path d="M121.65 58.8563C121.62 58.9118 115.226 55.5557 107.37 51.3642C99.5127 47.1728 93.1709 43.728 93.2005 43.6726C93.2302 43.6171 99.6201 46.9695 107.477 51.1646C115.334 55.3598 121.679 58.8009 121.65 58.8563Z" fill="#E0E0E0"/>
<path d="M119.405 63.0438C119.375 63.0993 112.982 59.7469 105.125 55.5517C97.2678 51.3566 90.926 47.9155 90.9557 47.8601C90.9853 47.8046 97.3752 51.1607 105.232 55.3521C113.089 59.5436 119.434 62.9884 119.405 63.0438Z" fill="#E0E0E0"/>
<path d="M117.16 67.2279C117.131 67.2834 110.737 63.931 102.88 59.7395C95.0232 55.5481 88.6814 52.1144 88.711 52.0478C88.7407 51.9813 95.1306 55.3448 102.987 59.5362C110.844 63.7277 117.19 67.1725 117.16 67.2279Z" fill="#E0E0E0"/>
<path d="M114.915 71.4151C114.886 71.4706 108.492 68.1182 100.635 63.9267C92.7784 59.7353 86.4329 56.2905 86.4662 56.2351C86.4995 56.1796 92.8858 59.532 100.743 63.7234C108.599 67.9149 114.945 71.3597 114.915 71.4151Z" fill="#E0E0E0"/>
<path opacity="0.2" d="M115.112 0H114.156V16.2556H115.112V0Z" fill="black"/>
<path d="M213.987 162.565C213.987 162.617 166.109 162.661 107.059 162.661C48.008 162.661 0.122314 162.628 0.122314 162.565C0.122314 162.502 47.9932 162.469 107.059 162.469C166.124 162.469 213.987 162.509 213.987 162.565Z" fill="#263238"/>
<path d="M11.9611 139.418C12.5874 139.463 13.1981 139.633 13.7569 139.919C14.3157 140.205 14.8111 140.6 15.2135 141.081C16.0136 142.049 16.5801 143.187 16.8693 144.408C17.4953 146.744 17.1101 149.505 16.4433 151.829C13.9096 150.924 12.3426 148.226 11.6277 146.806C10.5164 144.566 9.85334 139.835 11.95 139.414" fill="#E6E6E6"/>
<path d="M20.0921 154.662C19.7116 154.073 19.4941 153.394 19.4615 152.694C19.429 151.994 19.5827 151.299 19.9069 150.677C20.2413 150.062 20.6952 149.519 21.2422 149.08C21.7892 148.642 22.4182 148.316 23.0926 148.123C23.7112 147.931 24.4299 147.853 24.967 148.212C25.2091 148.395 25.3977 148.639 25.513 148.919C25.6284 149.199 25.6662 149.505 25.6227 149.805C25.5254 150.405 25.2697 150.969 24.8818 151.439C23.6483 153.106 22.1517 154.492 20.0662 154.662" fill="#E6E6E6"/>
<path d="M20.3736 162.476C20.3186 162.319 20.2802 162.157 20.2588 161.992C20.1921 161.645 20.1032 161.197 19.9958 160.661C19.6633 159.194 19.5707 157.682 19.7217 156.185C19.8963 154.681 20.4705 153.251 21.3849 152.042C21.6643 151.681 21.9864 151.354 22.3443 151.07C22.4416 150.993 22.543 150.921 22.6481 150.856C22.6815 150.828 22.719 150.805 22.7592 150.789C22.2906 151.188 21.8626 151.633 21.4812 152.116C20.615 153.326 20.0697 154.735 19.8958 156.211C19.6587 157.934 19.9513 159.512 20.1217 160.647C20.2106 161.212 20.2847 161.671 20.3255 161.988C20.3546 162.149 20.3707 162.313 20.3736 162.476Z" fill="#263238"/>
<path d="M12.7761 142.977C12.8184 143.035 12.8533 143.098 12.8798 143.165C12.9465 143.313 13.0354 143.498 13.1391 143.731C13.3651 144.222 13.68 144.936 14.0615 145.819C14.8246 147.589 15.847 150.051 16.9138 152.794C17.9807 155.536 18.8883 158.038 19.5069 159.861C19.8254 160.77 20.0736 161.509 20.2477 162.023C20.3255 162.267 20.3848 162.463 20.433 162.614C20.4594 162.682 20.478 162.753 20.4885 162.825C20.451 162.762 20.4211 162.695 20.3996 162.625C20.3441 162.477 20.2737 162.285 20.1811 162.045L19.3994 159.901C18.7364 158.094 17.8103 155.595 16.7472 152.856C15.684 150.118 14.6764 147.648 13.943 145.867C13.5726 144.991 13.2873 144.278 13.0762 143.756C12.9799 143.52 12.9021 143.331 12.8428 143.18C12.815 143.114 12.7927 143.046 12.7761 142.977Z" fill="#263238"/>
<path d="M17.3621 157.306C16.5998 156.04 15.5465 154.973 14.2892 154.193C13.0318 153.414 11.6066 152.944 10.1312 152.823C9.39038 152.771 8.47911 152.897 8.14572 153.562C7.81234 154.227 8.25685 155.041 8.76805 155.58C9.85418 156.714 11.2524 157.501 12.7864 157.843C14.3204 158.186 15.9215 158.067 17.388 157.502" fill="#E6E6E6"/>
<path d="M11.2722 154.824C11.4293 154.816 11.5867 154.822 11.7427 154.842C11.9253 154.852 12.1072 154.873 12.2872 154.905C12.4984 154.946 12.7466 154.968 13.0059 155.042C13.2957 155.103 13.5815 155.182 13.8616 155.278C14.186 155.382 14.5039 155.506 14.8136 155.648C15.5257 155.966 16.1993 156.364 16.8213 156.834C17.4361 157.316 17.993 157.866 18.4808 158.475C18.6915 158.74 18.8857 159.018 19.0624 159.307C19.2221 159.556 19.3681 159.814 19.4995 160.079C19.6108 160.295 19.7098 160.518 19.7959 160.745C19.8701 160.913 19.9333 161.086 19.9848 161.262C20.0397 161.41 20.0806 161.562 20.107 161.717C20.0663 161.717 19.8885 161.081 19.3884 160.135C19.2522 159.881 19.1026 159.634 18.9402 159.396C18.7596 159.116 18.5643 158.845 18.3549 158.586C17.386 157.392 16.1504 156.44 14.7469 155.807C14.4246 155.666 14.1172 155.533 13.8171 155.437C13.5416 155.337 13.2609 155.252 12.9762 155.182C11.939 154.897 11.2685 154.864 11.2722 154.824Z" fill="#263238"/>
<path d="M78.902 86.684L65.7887 153.88L64.0847 162.677L151.507 162.255C155.433 162.237 158.915 158.759 160.171 153.592L175.677 90.1547C176.637 86.2331 174.533 82.1526 171.554 82.1563L83.0508 82.2487C81.1246 82.245 79.3984 84.0635 78.902 86.684Z" fill="#E6E6E6"/>
<g opacity="0.5">
<path d="M78.902 86.684L65.7887 153.88L64.0847 162.677L151.507 162.255C155.433 162.237 158.915 158.759 160.171 153.592L175.677 90.1547C176.637 86.2331 174.533 82.1526 171.554 82.1563L83.0508 82.2487C81.1246 82.245 79.3984 84.0635 78.902 86.684Z" fill="black"/>
</g>
<path d="M143.131 149.322L133.87 74.8776C133.5 71.8283 131.059 69.5515 128.181 69.5625L107.881 69.6254C107.127 69.6339 106.382 69.7955 105.692 70.1006C105.002 70.4056 104.382 70.8475 103.869 71.3995L94.2379 81.6268L37.7841 81.9298C34.3354 81.9483 31.6831 85.2083 32.1387 88.8675L40.7364 157.671C41.1069 160.717 43.548 162.99 46.4188 162.986L144.824 162.79C155.781 163.016 156.83 159.789 156.83 159.789C144.25 162.565 143.131 149.34 143.131 149.322Z" fill="#E6E6E6"/>
<g opacity="0.5">
<path d="M100.698 134.438L97.3791 137.994L71.8193 115.048L75.1384 111.492L100.698 134.438Z" fill="white"/>
<path d="M95.9901 110.703L99.6574 113.996L76.5313 138.779L72.8604 135.486L95.9901 110.703Z" fill="white"/>
</g>
</g>
<defs>
<clipPath id="clip0_11181_19568">
<rect width="223" height="163" fill="white"/>
</clipPath>
</defs>
</svg>
