<svg width="20" height="22" viewBox="0 0 20 22" fill="none" xmlns="http://www.w3.org/2000/svg">
<path d="M10 21.0134C9.8712 21.0134 9.74457 20.9802 9.6323 20.917L1.3823 16.2764C1.26632 16.2112 1.16978 16.1162 1.10259 16.0014C1.03541 15.8865 1 15.7558 1 15.6227V6.375C1 6.24192 1.03541 6.11124 1.10259 5.99637C1.16978 5.88149 1.26632 5.78656 1.3823 5.72132L9.6323 1.08069C9.74457 1.01755 9.8712 0.984375 10 0.984375C10.1288 0.984375 10.2554 1.01755 10.3677 1.08069L18.6177 5.72132C18.7337 5.78656 18.8302 5.88149 18.8974 5.99637C18.9646 6.11124 19 6.24192 19 6.375V15.6227C19 15.7558 18.9646 15.8865 18.8974 16.0014C18.8302 16.1162 18.7337 16.2112 18.6177 16.2764L10.3677 20.917C10.2554 20.9802 10.1288 21.0134 10 21.0134ZM10 21.0134L10.089 10.9989M14.5958 13.2968V8.42177L5.5 3.40511M18.8966 5.99515L10.089 10.9989M10.089 10.9989L1.10388 5.99421" stroke="#EA690C" stroke-width="1.5" stroke-linecap="round" stroke-linejoin="round"/>
</svg>
