<svg aria-hidden="true" width="24" height="24" viewBox="0 0 24 24" fill="none" xmlns="http://www.w3.org/2000/svg">
  <path
    d="M12 22.0134C11.8712 22.0134 11.7446 21.9802 11.6323 21.917L3.3823 17.2764C3.26632 17.2112 3.16978 17.1162 3.10259 17.0014C3.03541 16.8865 3 16.7558 3 16.6227V7.375C3 7.24192 3.03541 7.11124 3.10259 6.99637C3.16978 6.88149 3.26632 6.78656 3.3823 6.72132L11.6323 2.08069C11.7446 2.01755 11.8712 1.98438 12 1.98438C12.1288 1.98437 12.2554 2.01755 12.3677 2.08069L20.6177 6.72132C20.7337 6.78656 20.8302 6.88149 20.8974 6.99637C20.9646 7.11124 21 7.24192 21 7.375V16.6227C21 16.7558 20.9646 16.8865 20.8974 17.0014C20.8302 17.1162 20.7337 17.2112 20.6177 17.2764L12.3677 21.917C12.2554 21.9802 12.1288 22.0134 12 22.0134ZM12 22.0134L12.089 11.9989M16.5958 14.2968V9.42177L7.5 4.40511M20.8966 6.99515L12.089 11.9989M12.089 11.9989L3.10388 6.99421"
    stroke="#EA690C"
    stroke-width="1.5"
    stroke-linecap="round"
    stroke-linejoin="round"
  />
</svg>
