<svg width="24" height="24" viewBox="0 0 24 24" fill="none" xmlns="http://www.w3.org/2000/svg">
<path d="M13.5 13.5018L15.75 11.2518M15.75 11.2518L13.5 9.00184M15.75 11.2518L10.5 11.2518C9.90327 11.2518 9.33098 11.4889 8.90902 11.9108C8.48706 12.3328 8.25001 12.9051 8.25001 13.5018V14.2518M1.65534 11.4715L11.4697 1.65717C11.7626 1.36428 12.2374 1.36428 12.5303 1.65717L22.3447 11.4715C22.6376 11.7644 22.6376 12.2393 22.3447 12.5322L12.5303 22.3465C12.2374 22.6394 11.7626 22.6394 11.4697 22.3465L1.65534 12.5322C1.36245 12.2393 1.36245 11.7644 1.65534 11.4715Z" stroke="#EA690C" stroke-width="1.5" stroke-linecap="round" stroke-linejoin="round"/>
</svg>
