<svg width="24" height="16" viewBox="0 0 24 16" fill="none" xmlns="http://www.w3.org/2000/svg">
<path d="M1.5 7.75C1.08579 7.75 0.75 8.08579 0.75 8.5C0.75 8.91421 1.08579 9.25 1.5 9.25V7.75ZM16.5 9.25C16.9142 9.25 17.25 8.91421 17.25 8.5C17.25 8.08579 16.9142 7.75 16.5 7.75V9.25ZM15.75 11.0514C15.75 11.4656 16.0858 11.8014 16.5 11.8014C16.9142 11.8014 17.25 11.4656 17.25 11.0514H15.75ZM22.5 6.25H23.25C23.25 6.15459 23.2318 6.06005 23.1964 5.97146L22.5 6.25ZM16.5 2.5V1.75C16.0858 1.75 15.75 2.08579 15.75 2.5H16.5ZM20.4922 2.5V1.75V2.5ZM21.1886 2.97146L21.8849 2.69291V2.69291L21.1886 2.97146ZM1.5 12.25H0.75H1.5ZM2.25 1V1.75V1ZM16.5 1H17.25C17.25 0.585786 16.9142 0.25 16.5 0.25V1ZM15.375 13V12.25H8.625V13V13.75H15.375V13ZM19.875 13H19.125C19.125 13.8284 18.4534 14.5 17.625 14.5V15.25V16C19.2819 16 20.625 14.6569 20.625 13H19.875ZM17.625 15.25V14.5C16.7966 14.5 16.125 13.8284 16.125 13H15.375H14.625C14.625 14.6569 15.9681 16 17.625 16V15.25ZM15.375 13H16.125C16.125 12.1716 16.7966 11.5 17.625 11.5V10.75V10C15.9681 10 14.625 11.3431 14.625 13H15.375ZM17.625 10.75V11.5C18.4534 11.5 19.125 12.1716 19.125 13H19.875H20.625C20.625 11.3431 19.2819 10 17.625 10V10.75ZM8.625 13H7.875C7.875 13.8284 7.20343 14.5 6.375 14.5V15.25V16C8.03185 16 9.375 14.6569 9.375 13H8.625ZM6.375 15.25V14.5C5.54657 14.5 4.875 13.8284 4.875 13H4.125H3.375C3.375 14.6569 4.71815 16 6.375 16V15.25ZM4.125 13H4.875C4.875 12.1716 5.54657 11.5 6.375 11.5V10.75V10C4.71815 10 3.375 11.3431 3.375 13H4.125ZM6.375 10.75V11.5C7.20343 11.5 7.875 12.1716 7.875 13H8.625H9.375C9.375 11.3431 8.03185 10 6.375 10V10.75ZM1.5 8.5V9.25H16.5V8.5V7.75H1.5V8.5ZM16.5 11.0514H17.25V6.25H16.5H15.75V11.0514H16.5ZM16.5 6.25V7H22.5V6.25V5.5H16.5V6.25ZM22.5 6.25H21.75V12.25H22.5H23.25V6.25H22.5ZM22.5 12.25H21.75V12.25L22.2803 12.7803L22.8107 13.3107C23.092 13.0294 23.25 12.6478 23.25 12.25H22.5ZM22.2803 12.7803L21.75 12.25V12.25V13V13.75C22.1478 13.75 22.5294 13.592 22.8107 13.3107L22.2803 12.7803ZM21.75 13V12.25H19.875V13V13.75H21.75V13ZM16.5 6.25H17.25V2.5H16.5H15.75V6.25H16.5ZM16.5 2.5V3.25H20.4922V2.5V1.75H16.5V2.5ZM20.4922 2.5V3.25V3.25L20.9127 2.62895L21.3332 2.0079C21.0849 1.83983 20.792 1.75 20.4922 1.75V2.5ZM20.9127 2.62895L20.4922 3.25V3.25L21.1886 2.97146L21.8849 2.69291C21.7736 2.41457 21.5814 2.17597 21.3332 2.0079L20.9127 2.62895ZM21.1886 2.97146L20.4922 3.25L21.8036 6.52854L22.5 6.25L23.1964 5.97146L21.8849 2.69291L21.1886 2.97146ZM4.125 13V12.25H2.25V13V13.75H4.125V13ZM2.25 13V12.25L2.25 12.25L1.71967 12.7803L1.18934 13.3107C1.47065 13.592 1.85218 13.75 2.25 13.75V13ZM1.71967 12.7803L2.25 12.25L2.25 12.25H1.5H0.75C0.75 12.6478 0.908035 13.0294 1.18934 13.3107L1.71967 12.7803ZM1.5 12.25H2.25V1.75H1.5H0.75V12.25H1.5ZM1.5 1.75H2.25L2.25 1.75L1.71967 1.21967L1.18934 0.68934C0.908035 0.970644 0.75 1.35218 0.75 1.75H1.5ZM1.71967 1.21967L2.25 1.75L2.25 1.75V1V0.25C1.85217 0.25 1.47064 0.408036 1.18934 0.68934L1.71967 1.21967ZM2.25 1V1.75H16.5V1V0.25H2.25V1ZM16.5 1H15.75V11.0514H16.5H17.25V1H16.5Z" fill="#EA690C"/>
</svg>
