<svg width="24" height="24" viewBox="0 0 24 24" fill="none" xmlns="http://www.w3.org/2000/svg">
<path d="M7.22006 14.4727L9.69006 12.0027L7.22006 9.53271C7.12133 9.44104 7.04916 9.32444 7.01115 9.19519C6.97313 9.06594 6.97068 8.92883 7.00406 8.79831C7.03743 8.66778 7.10539 8.54868 7.20078 8.45354C7.29617 8.3584 7.41545 8.29075 7.54606 8.25771C7.67644 8.2244 7.81338 8.22679 7.94252 8.26462C8.07167 8.30244 8.18825 8.37432 8.28006 8.47271L11.2801 11.4727C11.4205 11.6133 11.4994 11.804 11.4994 12.0027C11.4994 12.2015 11.4205 12.3921 11.2801 12.5327L8.28006 15.5327C8.13791 15.6654 7.94981 15.7376 7.75542 15.7343C7.56103 15.7309 7.37554 15.6522 7.23806 15.5147C7.10059 15.3772 7.02187 15.1917 7.01851 14.9973C7.01516 14.803 7.08742 14.6149 7.22006 14.4727Z" fill="#6D6D6D"/>
<path d="M3.75 2H20.25C21.216 2 22 2.784 22 3.75V20.25C22 20.7141 21.8156 21.1592 21.4874 21.4874C21.1592 21.8156 20.7141 22 20.25 22H3.75C3.28587 22 2.84075 21.8156 2.51256 21.4874C2.18437 21.1592 2 20.7141 2 20.25V3.75C2 2.784 2.784 2 3.75 2ZM3.5 3.75V20.25C3.5 20.388 3.612 20.5 3.75 20.5H15V3.5H3.75C3.6837 3.5 3.62011 3.52634 3.57322 3.57322C3.52634 3.62011 3.5 3.6837 3.5 3.75ZM16.5 20.5H20.25C20.3163 20.5 20.3799 20.4737 20.4268 20.4268C20.4737 20.3799 20.5 20.3163 20.5 20.25V3.75C20.5 3.6837 20.4737 3.62011 20.4268 3.57322C20.3799 3.52634 20.3163 3.5 20.25 3.5H16.5V20.5Z" fill="#6D6D6D"/>
</svg>
