<svg width="21" height="15" viewBox="0 0 21 15" fill="none" xmlns="http://www.w3.org/2000/svg">
<path d="M20.0914 2.20301C19.9775 1.78041 19.7549 1.39501 19.4457 1.08518C19.1366 0.775338 18.7517 0.551868 18.3294 0.437007C16.7634 0.00700739 10.4984 7.59651e-06 10.4984 7.59651e-06C10.4984 7.59651e-06 4.23438 -0.00699261 2.66738 0.404007C2.2453 0.524154 1.8612 0.750785 1.55194 1.06214C1.24269 1.3735 1.01866 1.75913 0.901377 2.18201C0.488377 3.74801 0.484376 6.99601 0.484376 6.99601C0.484376 6.99601 0.480376 10.26 0.890376 11.81C1.12038 12.667 1.79538 13.344 2.65338 13.575C4.23538 14.005 10.4834 14.012 10.4834 14.012C10.4834 14.012 16.7484 14.019 18.3144 13.609C18.7369 13.4943 19.1221 13.2714 19.432 12.9622C19.7419 12.653 19.9658 12.2682 20.0814 11.846C20.4954 10.281 20.4984 7.03401 20.4984 7.03401C20.4984 7.03401 20.5184 3.76901 20.0914 2.20301ZM8.49438 10.005L8.49938 4.00501L13.7064 7.01001L8.49438 10.005Z" fill="white"/>
</svg>
